<svg width="28" height="28" viewBox="0 0 28 28" fill="none" xmlns="http://www.w3.org/2000/svg">
<path d="M6.5 25.5003L12.0493 23.366C12.4042 23.2295 12.5817 23.1612 12.7477 23.0721C12.8952 22.9929 13.0358 22.9015 13.168 22.7989C13.3169 22.6834 13.4514 22.5489 13.7203 22.28L25 11.0003C26.1046 9.89574 26.1046 8.10487 25 7.0003C23.8955 5.89573 22.1046 5.89573 21 7.0003L9.72028 18.28C9.45138 18.5489 9.31692 18.6834 9.20139 18.8323C9.09877 18.9645 9.0074 19.1051 8.92823 19.2526C8.83911 19.4186 8.77085 19.5961 8.63433 19.951L6.5 25.5003ZM6.5 25.5003L8.55812 20.1493C8.7054 19.7663 8.77903 19.5749 8.90534 19.4872C9.01572 19.4105 9.1523 19.3816 9.2843 19.4068C9.43533 19.4356 9.58038 19.5807 9.87048 19.8708L12.1296 22.1299C12.4197 22.4199 12.5647 22.565 12.5936 22.716C12.6188 22.848 12.5898 22.9846 12.5131 23.095C12.4254 23.2213 12.234 23.2949 11.8511 23.4422L6.5 25.5003Z" stroke="#B2B2B3" stroke-width="2" stroke-linecap="round" stroke-linejoin="round"/>
<path d="M3.5 6L6 6M6 6L8.5 6M6 6V3.5M6 6L6 8.5" stroke="#B2B2B3" stroke-width="2" stroke-linecap="round" stroke-linejoin="round"/>
</svg>
