<svg width="24" height="24" viewBox="0 0 24 24" fill="none" xmlns="http://www.w3.org/2000/svg">
<path d="M8.25803 1.85844C9.08946 1.85844 9.76146 2.52702 9.76146 3.35502V7.8293C9.76101 8.02628 9.72176 8.22125 9.64596 8.40307C9.57017 8.58488 9.4593 8.74999 9.31969 8.88896C9.18009 9.02793 9.01447 9.13804 8.83231 9.21301C8.65015 9.28797 8.45501 9.32632 8.25803 9.32587H4.24146C4.04455 9.32632 3.84949 9.28796 3.66743 9.21297C3.48536 9.13799 3.31987 9.02785 3.1804 8.88885C3.04093 8.74986 2.93022 8.58474 2.85461 8.40294C2.779 8.22113 2.73997 8.0262 2.73974 7.8293V3.35502C2.73974 2.52873 3.41174 1.85844 4.24146 1.85844H8.25803ZM8.25803 13.8173C9.08946 13.8173 9.76146 14.4859 9.76146 15.3139V19.7882C9.76101 19.9851 9.72176 20.1801 9.64596 20.3619C9.57017 20.5437 9.4593 20.7088 9.31969 20.8478C9.18009 20.9868 9.01447 21.0969 8.83231 21.1719C8.65015 21.2468 8.45501 21.2852 8.25803 21.2847H4.24146C4.04455 21.2852 3.84949 21.2468 3.66743 21.1718C3.48536 21.0968 3.31987 20.9867 3.1804 20.8477C3.04093 20.7087 2.93022 20.5436 2.85461 20.3618C2.779 20.18 2.73997 19.9851 2.73974 19.7882V15.3139C2.73974 14.4859 3.41174 13.8173 4.24146 13.8173H8.25803ZM19.7592 1.85844C20.5889 1.85844 21.2609 2.52702 21.2609 3.35502V7.8293C21.26 8.22683 21.1013 8.60774 20.8197 8.88835C20.5382 9.16897 20.1567 9.32633 19.7592 9.32587H15.7426C15.5456 9.32655 15.3503 9.28835 15.168 9.21347C14.9858 9.13858 14.8201 9.02848 14.6804 8.88946C14.5408 8.75045 14.4299 8.58525 14.3542 8.40333C14.2785 8.22142 14.2394 8.02635 14.2392 7.8293V3.35502C14.2392 2.52873 14.9129 1.85844 15.7426 1.85844H19.7592ZM4.05631 10.7556H8.44317C9.95517 10.7556 11.1792 9.53844 11.1792 8.03502V3.1493C11.1785 2.79092 11.1072 2.43619 10.9692 2.10542C10.8313 1.77464 10.6295 1.47431 10.3754 1.22161C10.1212 0.968916 9.81978 0.768816 9.48823 0.632764C9.15667 0.496711 8.80155 0.427377 8.44317 0.42873H4.05803C2.54603 0.42873 1.32031 1.64587 1.32031 3.15102V8.03502C1.32099 8.3934 1.39233 8.74813 1.53025 9.0789C1.66818 9.40968 1.86998 9.71001 2.12411 9.96271C2.37824 10.2154 2.6797 10.4155 3.01126 10.5516C3.34281 10.6876 3.69793 10.7569 4.05631 10.7556ZM4.05631 22.7144H8.44317C9.95517 22.7144 11.1792 21.4973 11.1792 19.9922V15.1082C11.1785 14.7498 11.1072 14.395 10.9692 14.0643C10.8313 13.7335 10.6295 13.4332 10.3754 13.1805C10.1212 12.9278 9.81978 12.7277 9.48823 12.5916C9.15667 12.4556 8.80155 12.3862 8.44317 12.3876H4.05803C2.54603 12.3876 1.32203 13.6047 1.32203 15.1082V19.9939C1.3227 20.3523 1.39404 20.707 1.53197 21.0378C1.66989 21.3685 1.87169 21.6689 2.12582 21.9216C2.37995 22.1743 2.68142 22.3744 3.01297 22.5104C3.34452 22.6465 3.69965 22.7158 4.05803 22.7144H4.05631ZM15.5592 10.7556H19.9426C21.4546 10.7556 22.6786 9.53844 22.6786 8.03502V3.1493C22.6779 2.79092 22.6066 2.43619 22.4687 2.10542C22.3307 1.77464 22.1289 1.47431 21.8748 1.22161C21.6207 0.968916 21.3192 0.768816 20.9877 0.632764C20.6561 0.496711 20.301 0.427377 19.9426 0.42873H15.5575C14.0455 0.42873 12.8232 1.64587 12.8232 3.15102V8.03502C12.8238 8.3934 12.8952 8.74813 13.0331 9.0789C13.171 9.40968 13.3728 9.71001 13.627 9.96271C13.8811 10.2154 14.1826 10.4155 14.5141 10.5516C14.8457 10.6876 15.2008 10.7569 15.5592 10.7556ZM19.754 21.2762H15.5557C14.6506 21.2762 14.2597 20.899 14.2597 19.9922V15.1082C14.2597 14.2047 14.6523 13.8104 15.5575 13.8104H19.9426C20.8512 13.8104 21.2592 14.203 21.2592 15.1064V19.9956C21.2592 20.2956 21.5797 20.6402 21.998 20.6402C22.4163 20.6402 22.6786 20.2956 22.6786 19.9956V15.1064C22.6777 14.7482 22.6062 14.3937 22.4682 14.0631C22.3301 13.7325 22.1283 13.4324 21.8742 13.1799C21.6201 12.9273 21.3187 12.7274 20.9873 12.5915C20.6558 12.4555 20.3008 12.3862 19.9426 12.3876H15.5575C14.0455 12.3876 12.8215 13.6047 12.8215 15.1082V19.9939C12.8221 20.3521 12.8934 20.7067 13.0312 21.0374C13.1691 21.368 13.3707 21.6683 13.6246 21.921C13.8786 22.1736 14.1799 22.3738 14.5112 22.5099C14.8426 22.6461 15.1975 22.7156 15.5557 22.7144H19.9289C20.2443 22.7144 20.6489 22.4573 20.6489 21.9927C20.648 21.8047 20.5737 21.6245 20.4417 21.4906C20.3097 21.3567 20.1306 21.2797 19.9426 21.2762H19.7557H19.754Z" fill="white"/>
</svg>
