<svg width="81" height="70" viewBox="0 0 81 70" fill="none" xmlns="http://www.w3.org/2000/svg">
<path d="M2.24222 26.571C1.34364 20.3112 2.88406 14.0513 7.89044 8.97577C12.5545 4.2809 19.3152 0.685687 27.3169 2.46213C33.8209 3.90019 38.0143 8.42591 39.7258 10.7522C40.1109 11.2598 40.8812 11.2598 41.2663 10.7522C43.0206 8.46821 47.1712 3.94249 53.6752 2.46213C61.6769 0.685687 68.4376 4.2809 73.1017 8.97577C85.7246 21.6646 76.1825 41.7553 62.3615 51.0181C56.6705 54.8248 48.027 60.8732 44.0048 64.7644C42.8495 65.8641 41.9081 66.8792 41.2235 67.6828C40.8384 68.1057 40.1965 68.1057 39.8114 67.6828C39.1268 66.8792 38.1854 65.8641 37.0301 64.7644C33.0079 60.9154 24.3216 54.8671 18.6734 51.0181C13.8382 47.7613 10.2866 44.4199 7.24859 39.3021" stroke="white" stroke-width="3" stroke-miterlimit="10" stroke-linecap="round" stroke-linejoin="round"/>
<path d="M4.03857 33.1684H15.3778L18.7582 27.7545L23.3366 39.9781L28.7281 12.8662L34.9326 47.972L42.6775 26.4856L47.2988 40.0626L51.4066 33.1684H61.9756" stroke="white" stroke-width="3" stroke-miterlimit="10" stroke-linecap="round" stroke-linejoin="round"/>
</svg>
