<svg width="104" height="25" viewBox="0 0 104 25" fill="none" xmlns="http://www.w3.org/2000/svg">
<path d="M10.552 24.704C9.592 24.704 8.728 24.6507 7.96 24.544C7.21333 24.4373 6.57333 24.288 6.04 24.096C5.50667 23.904 5.112 23.7013 4.856 23.488C5.09067 23.232 5.29333 22.944 5.464 22.624C5.656 22.2827 5.82667 21.888 5.976 21.44C6.14667 20.992 6.28533 20.4587 6.392 19.84L8.568 8.672C8.76 7.60533 9.08 6.80533 9.528 6.272C9.99733 5.73867 10.7227 5.472 11.704 5.472C12.3013 5.472 12.7707 5.58933 13.112 5.824C13.4747 6.05867 13.688 6.34667 13.752 6.688C13.1973 6.96533 12.824 7.38133 12.632 7.936C12.4613 8.49067 12.312 9.03467 12.184 9.568L11.672 12.096L13.144 12.064C14.424 12.0213 15.448 11.808 16.216 11.424C16.984 11.04 17.5387 10.5173 17.88 9.856C18.2427 9.19467 18.4133 8.46933 18.392 7.68C18.392 6.48533 17.8907 5.58933 16.888 4.992C15.9067 4.39467 14.4453 4.096 12.504 4.096C11.5013 4.096 10.4987 4.21333 9.496 4.448C8.51467 4.68267 7.608 5.056 6.776 5.568C5.96533 6.05867 5.31467 6.72 4.824 7.552C4.33333 8.384 4.088 9.39733 4.088 10.592C4.06667 11.168 4.12 11.7013 4.248 12.192C4.376 12.6613 4.61067 13.2053 4.952 13.824C4.73867 14.016 4.472 14.1653 4.152 14.272C3.85333 14.3573 3.55467 14.4 3.256 14.4C2.68 14.4 2.168 14.2507 1.72 13.952C1.29333 13.6533 0.952 13.2267 0.696 12.672C0.461333 12.1173 0.344 11.4667 0.344 10.72C0.344 9.184 0.845333 7.776 1.848 6.496C2.85067 5.19467 4.29067 4.14933 6.168 3.36C8.06667 2.57067 10.3493 2.176 13.016 2.176C14.36 2.176 15.576 2.29333 16.664 2.528C17.7733 2.74133 18.7227 3.072 19.512 3.52C20.3013 3.94667 20.8987 4.49067 21.304 5.152C21.7307 5.81333 21.944 6.58133 21.944 7.456C21.944 8.224 21.7627 8.94933 21.4 9.632C21.0587 10.3147 20.568 10.9227 19.928 11.456C19.288 11.9893 18.4987 12.4267 17.56 12.768C18.3067 12.9813 18.968 13.2907 19.544 13.696C20.12 14.1013 20.568 14.624 20.888 15.264C21.2293 15.904 21.3787 16.6507 21.336 17.504C21.2933 18.7413 20.9733 19.8187 20.376 20.736C19.7787 21.632 18.9787 22.3787 17.976 22.976C16.9733 23.552 15.832 23.9787 14.552 24.256C13.272 24.5547 11.9387 24.704 10.552 24.704ZM11.224 22.592C12.5253 22.592 13.6347 22.368 14.552 21.92C15.4693 21.472 16.1733 20.8533 16.664 20.064C17.176 19.2533 17.432 18.3467 17.432 17.344C17.432 16.1067 16.9413 15.264 15.96 14.816C14.9787 14.3467 13.4107 14.0907 11.256 14.048L9.912 20.96C9.82667 21.344 9.72 21.664 9.592 21.92C9.464 22.176 9.32533 22.3787 9.176 22.528C9.47467 22.5493 9.79467 22.5707 10.136 22.592C10.4773 22.592 10.84 22.592 11.224 22.592ZM25.761 24.64C25.0783 24.64 24.545 24.448 24.161 24.064C23.777 23.68 23.585 23.1467 23.585 22.464C23.585 22.208 23.6063 21.8987 23.649 21.536C23.6917 21.1733 23.745 20.8 23.809 20.416C23.873 20.0107 23.937 19.6373 24.001 19.296C24.0863 18.9333 24.1503 18.624 24.193 18.368L26.369 7.68L30.017 7.296L27.329 20.672C27.3077 20.8427 27.2757 21.0667 27.233 21.344C27.1903 21.6 27.169 21.824 27.169 22.016C27.169 22.336 27.2437 22.592 27.393 22.784C27.5637 22.976 27.809 23.0827 28.129 23.104C28.001 23.6373 27.7023 24.0213 27.233 24.256C26.785 24.512 26.2943 24.64 25.761 24.64ZM28.993 4.864C28.3103 4.864 27.745 4.704 27.297 4.384C26.849 4.04267 26.625 3.54133 26.625 2.88C26.625 2.176 26.8597 1.664 27.329 1.344C27.7983 1.00267 28.3743 0.831999 29.057 0.831999C29.7397 0.831999 30.305 1.00267 30.753 1.344C31.201 1.664 31.425 2.15467 31.425 2.816C31.425 3.52 31.1903 4.04267 30.721 4.384C30.2517 4.704 29.6757 4.864 28.993 4.864ZM37.5333 24.64C36.4239 24.64 35.5066 24.4693 34.7812 24.128C34.0773 23.7867 33.5226 23.3387 33.1173 22.784C32.7119 22.208 32.4239 21.5893 32.2533 20.928C32.1039 20.2453 32.0293 19.584 32.0293 18.944C32.0293 17.4933 32.1999 16.064 32.5413 14.656C32.9039 13.248 33.4479 11.968 34.1733 10.816C34.9199 9.664 35.8586 8.74667 36.9893 8.064C38.1413 7.38133 39.5173 7.04 41.1173 7.04C42.2479 7.04 43.1653 7.21067 43.8693 7.552C44.5733 7.89333 45.1279 8.352 45.5333 8.928C45.9599 9.48267 46.2479 10.1013 46.3973 10.784C46.5466 11.4453 46.6213 12.0853 46.6213 12.704C46.6213 14.1547 46.4399 15.5947 46.0773 17.024C45.7359 18.432 45.1919 19.712 44.4453 20.864C43.7199 22.016 42.7813 22.9333 41.6293 23.616C40.4986 24.2987 39.1333 24.64 37.5333 24.64ZM38.1413 22.72C38.7813 22.72 39.3573 22.5067 39.8693 22.08C40.3813 21.6533 40.8293 21.0773 41.2133 20.352C41.5973 19.6053 41.9066 18.784 42.1413 17.888C42.3973 16.9707 42.5893 16.032 42.7173 15.072C42.8453 14.112 42.9093 13.184 42.9093 12.288C42.9093 11.3067 42.7386 10.5067 42.3973 9.888C42.0559 9.26933 41.4373 8.96 40.5413 8.96C39.9013 8.96 39.3146 9.17333 38.7812 9.6C38.2479 10.0267 37.7893 10.6027 37.4053 11.328C37.0426 12.0533 36.7333 12.8747 36.4773 13.792C36.2213 14.688 36.0293 15.6267 35.9013 16.608C35.7946 17.568 35.7413 18.496 35.7413 19.392C35.7413 20.352 35.9119 21.152 36.2533 21.792C36.6159 22.4107 37.2453 22.72 38.1413 22.72ZM58.6315 24.704C57.7355 24.704 56.9462 24.6613 56.2635 24.576C55.6022 24.4907 55.0368 24.3627 54.5675 24.192C54.0982 24.0427 53.7248 23.8507 53.4475 23.616C53.7035 23.3173 53.9275 23.008 54.1195 22.688C54.3115 22.368 54.4715 21.9947 54.5995 21.568C54.7488 21.12 54.8875 20.608 55.0155 20.032L57.3195 8.128C57.5115 7.25333 57.7675 6.51733 58.0875 5.92C58.4075 5.30133 58.7915 4.78933 59.2395 4.384L59.2075 4.32C58.9728 4.32 58.7382 4.352 58.5035 4.416C58.2902 4.45867 58.0768 4.512 57.8635 4.576C56.9462 4.768 56.1035 5.12 55.3355 5.632C54.5888 6.12267 53.9915 6.77333 53.5435 7.584C53.1168 8.37333 52.9035 9.32267 52.9035 10.432C52.9035 11.0507 52.9675 11.616 53.0955 12.128C53.2448 12.6187 53.5008 13.184 53.8635 13.824C53.6288 14.0587 53.3728 14.24 53.0955 14.368C52.8182 14.4747 52.4982 14.528 52.1355 14.528C51.4528 14.528 50.8875 14.3573 50.4395 14.016C50.0128 13.6533 49.6928 13.1733 49.4795 12.576C49.2662 11.9787 49.1595 11.3173 49.1595 10.592C49.1595 9.504 49.4155 8.45867 49.9275 7.456C50.4608 6.45333 51.2395 5.568 52.2635 4.8C53.3088 4.032 54.5782 3.424 56.0715 2.976C57.5862 2.50667 59.3355 2.272 61.3195 2.272C63.5808 2.272 65.4795 2.58133 67.0155 3.2C68.5515 3.81867 69.7142 4.75733 70.5035 6.016C71.3142 7.25333 71.7195 8.832 71.7195 10.752C71.7195 12.608 71.4102 14.368 70.7915 16.032C70.1942 17.696 69.3195 19.1893 68.1675 20.512C67.0368 21.8133 65.6608 22.8373 64.0395 23.584C62.4395 24.3307 60.6368 24.704 58.6315 24.704ZM58.5995 22.528C60.1568 22.528 61.5222 22.1973 62.6955 21.536C63.8688 20.8533 64.8502 19.936 65.6395 18.784C66.4288 17.632 67.0155 16.32 67.3995 14.848C67.8048 13.3547 68.0075 11.808 68.0075 10.208C68.0075 8.97067 67.7835 7.92533 67.3355 7.072C66.9088 6.21867 66.2688 5.568 65.4155 5.12C64.5622 4.65067 63.5275 4.384 62.3115 4.32C62.0768 4.46933 61.8848 4.672 61.7355 4.928C61.6075 5.16267 61.5115 5.46133 61.4475 5.824L58.3755 21.088C58.3115 21.4933 58.2155 21.8027 58.0875 22.016C57.9808 22.2293 57.8528 22.3893 57.7035 22.496C57.8315 22.5173 57.9702 22.528 58.1195 22.528C58.2902 22.528 58.4502 22.528 58.5995 22.528ZM79.252 24.64C78.1427 24.64 77.2253 24.4693 76.5 24.128C75.796 23.7867 75.2413 23.3387 74.836 22.784C74.4307 22.208 74.1427 21.5893 73.972 20.928C73.8227 20.2453 73.748 19.584 73.748 18.944C73.748 17.4933 73.9187 16.064 74.26 14.656C74.6227 13.248 75.1667 11.968 75.892 10.816C76.6387 9.664 77.5773 8.74667 78.708 8.064C79.86 7.38133 81.236 7.04 82.836 7.04C83.9667 7.04 84.884 7.21067 85.588 7.552C86.292 7.89333 86.8467 8.352 87.252 8.928C87.6787 9.48267 87.9667 10.1013 88.116 10.784C88.2653 11.4453 88.34 12.0853 88.34 12.704C88.34 14.1547 88.1587 15.5947 87.796 17.024C87.4547 18.432 86.9107 19.712 86.164 20.864C85.4387 22.016 84.5 22.9333 83.348 23.616C82.2173 24.2987 80.852 24.64 79.252 24.64ZM79.86 22.72C80.5 22.72 81.076 22.5067 81.588 22.08C82.1 21.6533 82.548 21.0773 82.932 20.352C83.316 19.6053 83.6253 18.784 83.86 17.888C84.116 16.9707 84.308 16.032 84.436 15.072C84.564 14.112 84.628 13.184 84.628 12.288C84.628 11.3067 84.4573 10.5067 84.116 9.888C83.7747 9.26933 83.156 8.96 82.26 8.96C81.62 8.96 81.0333 9.17333 80.5 9.6C79.9667 10.0267 79.508 10.6027 79.124 11.328C78.7613 12.0533 78.452 12.8747 78.196 13.792C77.94 14.688 77.748 15.6267 77.62 16.608C77.5133 17.568 77.46 18.496 77.46 19.392C77.46 20.352 77.6307 21.152 77.972 21.792C78.3347 22.4107 78.964 22.72 79.86 22.72ZM95.9343 24.64C94.0783 24.64 92.6916 24.1173 91.7743 23.072C90.8569 22.0053 90.3983 20.416 90.3983 18.304C90.3983 16.9173 90.5903 15.5627 90.9743 14.24C91.3583 12.896 91.9236 11.6907 92.6703 10.624C93.4383 9.536 94.3769 8.672 95.4863 8.032C96.6169 7.37067 97.9396 7.04 99.4543 7.04C100.329 7.04 101.097 7.168 101.758 7.424C102.441 7.65867 102.974 8.02133 103.358 8.512C103.742 9.00267 103.934 9.632 103.934 10.4C103.934 11.36 103.657 12.064 103.102 12.512C102.548 12.96 101.929 13.184 101.246 13.184C101.054 13.184 100.82 13.1627 100.542 13.12C100.286 13.056 100.084 12.928 99.9343 12.736C100.041 12.416 100.137 12.0533 100.222 11.648C100.329 11.2213 100.382 10.8587 100.382 10.56C100.382 10.0267 100.254 9.62133 99.9983 9.344C99.7636 9.06667 99.3903 8.928 98.8783 8.928C98.2383 8.928 97.6623 9.14133 97.1503 9.568C96.6383 9.99467 96.1903 10.56 95.8063 11.264C95.4436 11.9467 95.1343 12.704 94.8783 13.536C94.6223 14.368 94.4303 15.1893 94.3023 16C94.1743 16.8107 94.1102 17.536 94.1102 18.176C94.1102 19.2213 94.3129 20.1173 94.7183 20.864C95.1449 21.5893 95.9129 21.952 97.0223 21.952C98.0036 21.952 98.8249 21.664 99.4863 21.088C100.148 20.512 100.617 19.776 100.894 18.88C101.3 19.008 101.588 19.2213 101.758 19.52C101.929 19.7973 102.014 20.1387 102.014 20.544C102.014 21.2907 101.748 21.9733 101.214 22.592C100.702 23.2107 99.9876 23.7013 99.0703 24.064C98.1529 24.448 97.1076 24.64 95.9343 24.64Z" fill="white"/>
</svg>
