<svg width="22" height="24" viewBox="0 0 22 24" fill="none" xmlns="http://www.w3.org/2000/svg">
<path d="M15.2989 16.2282C14.9052 16.2045 13.9588 16.2606 13.0109 16.4406C12.4626 15.8857 11.9878 15.1866 11.6356 14.61C12.7642 11.3648 12.0494 10.4424 11.0873 10.4424C10.3317 10.4424 9.95445 11.2398 10.0384 12.1207C10.0809 12.5642 10.4564 13.4961 10.9187 14.3812C10.6351 15.1271 10.129 16.3877 9.62666 17.3001C9.03861 17.4787 8.53424 17.6773 8.17227 17.8448C6.36922 18.6833 6.22433 19.8029 6.59952 20.2774C7.31188 21.1786 8.82964 20.401 10.3526 17.6773C11.3953 17.3808 12.767 16.9858 12.8907 16.9858C12.905 16.9858 12.9245 16.9904 12.9471 16.9977C13.7072 17.6679 14.6049 18.4353 15.3438 18.5363C16.4129 18.6833 17.0215 17.9079 16.9793 17.4258C16.9375 16.9433 16.6557 16.3096 15.2989 16.2282ZM8.54956 19.1661C8.10889 19.6901 7.39616 20.1927 7.14463 20.0255C6.89277 19.858 6.85096 19.3758 7.41739 18.8303C7.98346 18.2855 8.93099 18.0027 9.07344 17.9497C9.24172 17.887 9.28353 17.9497 9.28353 18.0336C9.28353 18.1176 8.98986 18.6415 8.54956 19.1661ZM10.479 12.1204C10.4369 11.5957 10.5414 11.0928 10.982 11.0301C11.422 10.9667 11.6321 11.47 11.4645 12.2876C11.2966 13.1062 11.2123 13.6507 11.1287 13.7145C11.0448 13.7772 10.9615 13.5671 10.9615 13.5671C10.7933 13.2313 10.5208 12.6443 10.479 12.1204ZM10.6469 17.0481C10.8772 16.6701 11.4645 15.1402 11.4645 15.1402C11.5903 15.3711 12.5754 16.5444 12.5754 16.5444C12.5754 16.5444 11.0657 16.8806 10.6469 17.0481ZM15.217 17.7184C14.5882 17.6355 13.5191 16.8795 13.5191 16.8795C13.3725 16.8169 14.6906 16.6378 15.1968 16.6702C15.8472 16.7124 16.0777 16.9851 16.0777 17.2575C16.0777 17.5303 15.8472 17.8024 15.217 17.7184Z" fill="black"/>
<path d="M20.6242 5.04656L16.0145 0.4365L15.578 0H14.96H5.55905C3.33938 0 1.53356 1.80619 1.53356 4.02661V4.33458H0.9375V9.15019H1.53356V19.9738C1.53356 22.1939 3.33942 24 5.55909 24H17.0345C19.2548 24 21.0607 22.1939 21.0607 19.9738V6.10102V5.48339L20.6242 5.04656ZM17.0344 22.509H5.55905C4.15866 22.509 3.02377 21.3741 3.02377 19.9738V9.15014H10.3977V4.33453H3.02377V4.02656C3.02377 2.62584 4.15866 1.49053 5.55905 1.49053H14.6033V4.34494C14.6033 5.51156 15.5497 6.45736 16.7164 6.45736H19.5704V19.9737C19.5704 21.3742 18.4351 22.509 17.0344 22.509ZM3.1283 7.78528V5.55619C3.1283 5.51686 3.16031 5.48475 3.19973 5.48475H3.90792C4.02464 5.48475 4.13227 5.50392 4.22841 5.54156C4.32352 5.57883 4.40709 5.63109 4.4768 5.69728C4.54716 5.7638 4.60116 5.84466 4.63772 5.93733C4.67428 6.02822 4.69312 6.12755 4.69312 6.23236C4.69312 6.33933 4.67428 6.43927 4.63734 6.52917C4.60078 6.61908 4.54678 6.69881 4.47712 6.76608C4.4078 6.83297 4.32384 6.88556 4.2277 6.92212C4.13227 6.95869 4.02464 6.97716 3.90792 6.97716H3.60905V7.78533C3.60905 7.8247 3.57703 7.85672 3.53766 7.85672H3.19978C3.16031 7.85672 3.1283 7.82466 3.1283 7.78528ZM5.31244 7.78528V5.55619C5.31244 5.51686 5.3445 5.48475 5.38387 5.48475H6.16659C6.31533 5.48475 6.44634 5.5095 6.55678 5.55825C6.66863 5.60803 6.76856 5.68716 6.8543 5.79305C6.89855 5.84878 6.9337 5.91042 6.95911 5.97661C6.98386 6.04106 7.00266 6.11077 7.01484 6.18319C7.0267 6.25495 7.03364 6.3323 7.03608 6.41555C7.03819 6.49495 7.03922 6.58031 7.03922 6.67087C7.03922 6.76106 7.03819 6.84647 7.03608 6.92587C7.03364 7.0088 7.0267 7.08647 7.01484 7.15856C7.00266 7.23103 6.98386 7.30036 6.95911 7.36477C6.93333 7.43166 6.89817 7.49334 6.85458 7.548C6.76823 7.65497 6.6682 7.73405 6.55673 7.78312C6.44733 7.83187 6.31603 7.85663 6.16655 7.85663H5.38383C5.34445 7.85672 5.31244 7.82466 5.31244 7.78528ZM9.04294 6.46786C9.08231 6.46786 9.11433 6.49992 9.11433 6.5393V6.84305C9.11433 6.88242 9.08231 6.91448 9.04294 6.91448H8.18775V7.78537C8.18775 7.82475 8.15569 7.85677 8.11631 7.85677H7.77839C7.73902 7.85677 7.707 7.82475 7.707 7.78537V5.55628C7.707 5.51695 7.73902 5.48484 7.77839 5.48484H9.07463C9.11395 5.48484 9.14606 5.51691 9.14606 5.55628V5.86003C9.14606 5.89941 9.114 5.93147 9.07463 5.93147H8.18775V6.46791L9.04294 6.46786Z" fill="black"/>
<path d="M4.12842 6.45523C4.18523 6.40405 4.2127 6.33125 4.2127 6.23262C4.2127 6.13437 4.18519 6.06158 4.12842 6.01039C4.06922 5.95742 3.99117 5.93164 3.88945 5.93164H3.60938V6.53389H3.88945C3.99112 6.53394 4.06922 6.5082 4.12842 6.45523Z" fill="black"/>
<path d="M6.31788 7.3824C6.37084 7.36252 6.41645 7.33051 6.45723 7.28452C6.50148 7.23507 6.52933 7.16401 6.54016 7.07307C6.55234 6.96957 6.55825 6.83443 6.55825 6.6714C6.55825 6.50804 6.55234 6.37285 6.54016 6.26973C6.52933 6.17851 6.50148 6.10744 6.45756 6.05832C6.41683 6.01229 6.36977 5.97962 6.31825 5.9604C6.26284 5.93916 6.19947 5.92871 6.12878 5.92871H5.79297V7.41371H6.12878C6.19909 7.41376 6.26284 7.4033 6.31788 7.3824Z" fill="black"/>
</svg>
