<svg width="24" height="24" viewBox="0 0 24 24" fill="none" xmlns="http://www.w3.org/2000/svg">
<g clip-path="url(#clip0_864_131)">
<path d="M13.5353 12.9192C15.1244 10.7606 14.9487 7.70139 12.9972 5.74948C10.845 3.59761 7.34343 3.59761 5.1911 5.74948C3.03923 7.9017 3.03923 11.4036 5.1911 13.5554C7.14283 15.5077 10.2022 15.6826 12.3607 14.0939L19.0042 20.7378C19.3287 21.062 19.8549 21.062 20.1796 20.7378C20.5041 20.4134 20.5041 19.8872 20.1796 19.5628L13.5353 12.9192ZM11.8221 12.3807C10.3181 13.885 7.87055 13.885 6.36591 12.3807C4.86197 10.8763 4.86197 8.42882 6.36591 6.92453C7.87061 5.42001 10.3181 5.42001 11.8221 6.92453C13.3264 8.42882 13.3264 10.8764 11.8221 12.3807ZM22.9461 21.3659H23.9997V24H21.3655V22.9463H22.946V21.3659H22.9461ZM6.38065 22.9463H10.1267V23.9999H6.38065V22.9463ZM13.8731 22.9463H17.6195V23.9999H13.8731V22.9463ZM1.05378 22.9463H2.63425V23.9999H0.00012207V21.3658H1.05378V22.9463ZM1.05378 17.6194H0.00012207V13.8731H1.05378V17.6194ZM1.05378 10.1269H0.00012207V6.38053H1.05378V10.1269ZM0.00012207 0H2.63425V1.05365H1.05378V2.63413H0.00012207V0ZM10.1268 1.05365H6.38071V0H10.1268V1.05365ZM17.6196 1.05365H13.8729V0H17.6196V1.05365ZM23.9998 0V2.63413H22.9461V1.05365H21.3656V0H23.9998ZM22.9461 13.873H23.9997V17.6194H22.9461V13.873ZM22.9461 6.38053H23.9997V10.1269H22.9461V6.38053Z" fill="#6982B7"/>
</g>
<defs>
<clipPath id="clip0_864_131">
<rect width="24" height="24" fill="white"/>
</clipPath>
</defs>
</svg>
