<svg width="32" height="32" viewBox="0 0 32 32" fill="none" xmlns="http://www.w3.org/2000/svg">
<path d="M23.0819 17.7226C23.0819 17.7885 23.0623 17.853 23.0257 17.9078C22.9891 17.9626 22.937 18.0053 22.8761 18.0305C22.8152 18.0558 22.7482 18.0624 22.6835 18.0495C22.6189 18.0366 22.5595 18.0049 22.5128 17.9583C22.4662 17.9117 22.4345 17.8523 22.4216 17.7876C22.4088 17.7229 22.4154 17.6559 22.4406 17.595C22.4658 17.5341 22.5085 17.482 22.5634 17.4454C22.6182 17.4088 22.6826 17.3892 22.7485 17.3892C22.8369 17.3892 22.9217 17.4244 22.9842 17.4869C23.0468 17.5494 23.0819 17.6342 23.0819 17.7226ZM22.2919 20.4179C22.2259 20.4179 22.1615 20.4375 22.1067 20.4741C22.0519 20.5107 22.0091 20.5628 21.9839 20.6237C21.9587 20.6846 21.9521 20.7516 21.9649 20.8163C21.9778 20.8809 22.0096 20.9403 22.0562 20.9869C22.1028 21.0336 22.1622 21.0653 22.2268 21.0782C22.2915 21.091 22.3585 21.0844 22.4194 21.0592C22.4803 21.034 22.5324 20.9912 22.569 20.9364C22.6057 20.8816 22.6252 20.8172 22.6252 20.7512C22.6252 20.6628 22.5901 20.5781 22.5276 20.5155C22.4651 20.453 22.3803 20.4179 22.2919 20.4179ZM7.63988 8.10658C7.72828 8.10658 7.81307 8.07146 7.87558 8.00894C7.93809 7.94643 7.97321 7.86165 7.97321 7.77324V7.13324C7.97321 7.04484 7.93809 6.96005 7.87558 6.89754C7.81307 6.83503 7.72828 6.79991 7.63988 6.79991C7.55147 6.79991 7.46669 6.83503 7.40417 6.89754C7.34166 6.96005 7.30654 7.04484 7.30654 7.13324V7.77058C7.30619 7.81457 7.31455 7.85821 7.33115 7.89896C7.34774 7.93971 7.37224 7.97677 7.40323 8.008C7.43421 8.03924 7.47108 8.06403 7.5117 8.08095C7.55231 8.09787 7.59588 8.10658 7.63988 8.10658ZM7.63988 5.87724C7.72828 5.87724 7.81307 5.84212 7.87558 5.77961C7.93809 5.7171 7.97321 5.63231 7.97321 5.54391V4.90658C7.97321 4.81817 7.93809 4.73339 7.87558 4.67087C7.81307 4.60836 7.72828 4.57324 7.63988 4.57324C7.55147 4.57324 7.46669 4.60836 7.40417 4.67087C7.34166 4.73339 7.30654 4.81817 7.30654 4.90658V5.54391C7.30654 5.63231 7.34166 5.7171 7.40417 5.77961C7.46669 5.84212 7.55147 5.87724 7.63988 5.87724ZM7.18388 6.33591C7.18388 6.2475 7.14876 6.16272 7.08624 6.10021C7.02373 6.03769 6.93895 6.00258 6.85054 6.00258H6.64321C6.5548 6.00258 6.47002 6.03769 6.40751 6.10021C6.34499 6.16272 6.30988 6.2475 6.30988 6.33591C6.30988 6.42431 6.34499 6.5091 6.40751 6.57161C6.47002 6.63412 6.5548 6.66924 6.64321 6.66924H6.85054C6.89454 6.66924 6.93811 6.66053 6.97872 6.64362C7.01934 6.6267 7.0562 6.60191 7.08719 6.57067C7.11818 6.53943 7.14268 6.50237 7.15927 6.46162C7.17587 6.42087 7.18423 6.37724 7.18388 6.33324V6.33591ZM8.43654 6.66924H8.64321C8.73161 6.66924 8.8164 6.63412 8.87891 6.57161C8.94142 6.5091 8.97654 6.42431 8.97654 6.33591C8.97654 6.2475 8.94142 6.16272 8.87891 6.10021C8.8164 6.03769 8.73161 6.00258 8.64321 6.00258H8.43654C8.34814 6.00258 8.26335 6.03769 8.20084 6.10021C8.13833 6.16272 8.10321 6.2475 8.10321 6.33591C8.10321 6.42431 8.13833 6.5091 8.20084 6.57161C8.26335 6.63412 8.34814 6.66924 8.43654 6.66924ZM25.6825 16.3239C25.6759 22.2759 23.2779 26.1019 20.9085 26.8066C19.5126 27.2237 18.0628 27.4326 16.6059 27.4266C15.6116 27.4212 14.619 27.3436 13.6359 27.1946C12.7056 27.0243 11.8356 26.6152 11.111 26.0075C10.3865 25.3998 9.83219 24.6143 9.50254 23.7279C8.7823 23.6322 8.12143 23.2778 7.64308 22.7309C7.16474 22.184 6.90154 21.4818 6.90254 20.7552V11.8459C6.9004 11.119 7.1632 10.4162 7.64175 9.86909C8.12031 9.32194 8.78183 8.96791 9.50254 8.87324C9.78588 8.16058 10.9205 5.79591 13.6399 5.40124C15.678 5.05848 17.7619 5.09396 19.7872 5.50591H19.8105C19.8172 5.50591 19.8232 5.51191 19.8305 5.51391C20.1919 5.59258 20.5525 5.68058 20.9125 5.78791C23.1125 6.44124 25.3312 9.78791 25.6459 15.0206C25.6459 15.0466 25.6565 15.0706 25.6579 15.0966C25.6805 15.4846 25.6921 15.8846 25.6925 16.2966C25.6898 16.3059 25.6865 16.315 25.6825 16.3239ZM20.7185 6.42858C20.3739 6.32797 20.0259 6.23904 19.6752 6.16191C18.7844 6.17459 17.9128 6.42301 17.1492 6.88191C19.0545 7.88191 20.3539 10.3972 20.7705 13.8232C20.9804 13.6818 21.2275 13.6058 21.4805 13.6046H24.0659C24.3474 13.6055 24.6235 13.6814 24.8659 13.8246C24.2825 9.21324 22.1445 6.85191 20.7185 6.42858ZM20.2479 16.0999C20.2443 15.7888 20.2343 15.4808 20.2179 15.1759C19.9979 11.1539 18.5952 8.15524 16.5045 7.32324L16.4692 7.34991C15.9854 7.72909 15.6619 8.27648 15.5632 8.88324C16.2465 8.9715 16.8744 9.30499 17.3301 9.82166C17.7858 10.3383 18.0383 11.003 18.0405 11.6919V20.9046C18.0386 21.5936 17.7862 22.2584 17.3304 22.7751C16.8747 23.2918 16.2466 23.6253 15.5632 23.7132C15.6619 24.32 15.9854 24.8674 16.4692 25.2466C16.4805 25.2559 16.4932 25.2632 16.5045 25.2726C18.7859 24.3659 20.2519 20.8806 20.2519 16.2986C20.2519 16.2306 20.2485 16.1666 20.2479 16.0999ZM14.9232 9.51124C15.273 9.79126 15.5552 10.1464 15.7491 10.5503C15.943 10.9542 16.0435 11.3965 16.0432 11.8446V20.7532C16.0432 21.2009 15.9428 21.643 15.7494 22.0468C15.5561 22.4506 15.2747 22.8059 14.9259 23.0866H15.1925C15.7704 23.086 16.3244 22.8563 16.733 22.4477C17.1416 22.0391 17.3713 21.4851 17.3719 20.9072V11.6899C17.3712 11.1122 17.1413 10.5583 16.7327 10.1499C16.3242 9.74146 15.7703 9.51177 15.1925 9.51124H14.9232ZM9.60588 16.2999C9.60588 17.6126 10.4459 18.6859 11.4725 18.6859C12.4992 18.6859 13.3325 17.6126 13.3325 16.2999C13.333 16.128 13.3196 15.9563 13.2925 15.7866C13.2776 15.6991 13.2285 15.6211 13.1561 15.5697C13.0836 15.5184 12.9937 15.498 12.9062 15.5129C12.8187 15.5279 12.7407 15.5769 12.6894 15.6494C12.638 15.7218 12.6176 15.8117 12.6325 15.8992C12.6574 16.0311 12.6685 16.1651 12.6659 16.2992C12.6659 17.2326 12.1192 18.0186 11.4725 18.0186C10.8259 18.0186 10.2725 17.2319 10.2725 16.2992C10.2725 15.2386 11.0192 14.3792 11.7392 14.6192C11.8223 14.6469 11.913 14.6407 11.9916 14.602C12.0702 14.5634 12.1304 14.4953 12.1592 14.4126C12.1737 14.3715 12.1799 14.3279 12.1773 14.2843C12.1747 14.2408 12.1635 14.1982 12.1442 14.1591C12.125 14.12 12.0981 14.0851 12.0652 14.0565C12.0323 14.0279 11.994 14.0062 11.9525 13.9926C11.798 13.9398 11.6358 13.9128 11.4725 13.9126C10.4459 13.9132 9.60588 14.9792 9.60588 16.2999ZM10.2419 8.84591H13.0459C13.0771 8.84481 13.1084 8.84704 13.1392 8.85258H13.1599C13.1741 8.84873 13.1886 8.84584 13.2032 8.84391H14.8819C14.9976 8.05422 15.4109 7.33868 16.0372 6.84391C16.0879 6.79991 16.1459 6.76324 16.1992 6.72191C16.2295 6.68855 16.2659 6.66138 16.3065 6.64191C16.74 6.32776 17.2132 6.07263 17.7139 5.88324C16.384 5.79692 15.0487 5.85683 13.7319 6.06191C12.9669 6.20532 12.2487 6.5341 11.6403 7.01945C11.0319 7.5048 10.5517 8.13193 10.2419 8.84591ZM17.7085 26.7126C17.197 26.5191 16.7141 26.2569 16.2732 25.9332C16.2625 25.9266 16.2552 25.9199 16.2452 25.9126C16.1785 25.8599 16.1032 25.8106 16.0372 25.7539C15.4108 25.2592 14.9975 24.5436 14.8819 23.7539H13.2032C13.1925 23.7539 13.1839 23.7486 13.1739 23.7479H13.1392C13.1084 23.7534 13.0771 23.7557 13.0459 23.7546H10.2459C10.5559 24.4672 11.0359 25.0931 11.6437 25.5775C12.2515 26.0619 12.9686 26.39 13.7325 26.5332C15.0478 26.7383 16.3815 26.7989 17.7099 26.7139L17.7085 26.7126ZM25.0152 16.2966C25.0152 15.8886 25.0032 15.4966 24.9819 15.1152C24.9621 14.885 24.8566 14.6706 24.6862 14.5145C24.5158 14.3584 24.293 14.2721 24.0619 14.2726H21.4805C21.3971 14.272 21.3145 14.2888 21.2379 14.322C21.1613 14.3552 21.0925 14.404 21.0359 14.4652C20.9798 14.5247 20.9366 14.5952 20.9091 14.6722C20.8816 14.7492 20.8702 14.831 20.8759 14.9126C20.8805 14.9739 20.8759 15.0412 20.8825 15.1032C20.8999 15.4272 20.9112 15.7566 20.9145 16.0926C20.9145 16.1592 20.9205 16.2259 20.9205 16.2926V16.3052C20.9205 20.9719 19.4892 24.4846 17.1505 25.7052C17.9141 26.1637 18.7853 26.4121 19.6759 26.4252C20.0276 26.3507 20.3761 26.2617 20.7205 26.1586C22.3805 25.6739 25.0165 22.5572 25.0165 16.2979L25.0152 16.2966Z" fill="#6982B7"/>
</svg>
