<svg width="24" height="24" viewBox="0 0 24 24" fill="none" xmlns="http://www.w3.org/2000/svg">
<g clip-path="url(#clip0_697_5151)">
<path d="M22.5 4C22.5 4.66304 22.2366 5.29893 21.7678 5.76777C21.2989 6.23661 20.663 6.5 20 6.5C19.337 6.5 18.7011 6.23661 18.2322 5.76777C17.7634 5.29893 17.5 4.66304 17.5 4C17.5 3.33696 17.7634 2.70107 18.2322 2.23223C18.7011 1.76339 19.337 1.5 20 1.5C20.663 1.5 21.2989 1.76339 21.7678 2.23223C22.2366 2.70107 22.5 3.33696 22.5 4Z" stroke="white" stroke-width="2" stroke-linecap="round" stroke-linejoin="round"/>
<path d="M4 1.5C3.7475 1.5 3.509 1.514 3.287 1.5375C2.157 1.658 1.5 2.717 1.5 3.8525V7.5C1.5 7.751 1.501 7.9925 1.503 8.225C1.5305 11.2165 3.7835 13.47 6.7745 13.497C7.25816 13.5015 7.74184 13.5015 8.2255 13.497C11.2165 13.4695 13.4695 11.2165 13.497 8.2255C13.499 7.9925 13.5 7.7505 13.5 7.5V3.853C13.5 2.7165 12.8425 1.658 11.7125 1.538C11.4758 1.51277 11.238 1.50009 11 1.5" stroke="white" stroke-width="2" stroke-linecap="round" stroke-linejoin="round"/>
<path d="M7.5 13.5V16.25C7.5 19.702 10.298 22.5 13.75 22.5C17.202 22.5 20 19.702 20 16.25V6.5" stroke="white" stroke-width="2" stroke-linecap="round" stroke-linejoin="round"/>
</g>
<defs>
<clipPath id="clip0_697_5151">
<rect width="24" height="24" fill="white"/>
</clipPath>
</defs>
</svg>
