<svg width="1203" height="856" viewBox="0 0 1203 856" fill="none" xmlns="http://www.w3.org/2000/svg">
<path fill-rule="evenodd" clip-rule="evenodd" d="M923.189 115.601C881.198 97.6269 839.095 79.6046 800.701 58.6156C767.344 40.603 736.787 20.3511 707.88 0H193.782C155.869 53.4413 133.986 119.498 110.928 189.104C99.6048 223.285 87.9983 258.322 74.0706 293.141C63.3629 320.192 51.1902 347.199 39.2834 373.616C24.7414 405.879 10.596 437.263 0 466.773V608.706C35.2663 656.856 120.098 684.741 201.895 711.628C223.983 718.888 245.851 726.076 266.461 733.571C336.051 758.349 391.308 785.925 452.169 816.297C477.702 829.039 504.222 842.273 533.2 856H1051.64C1106.25 800.49 1149.09 724.477 1176.74 642.941C1188.35 608.895 1197.28 573.826 1203 538.88V373.444C1194.3 329.226 1177.55 288.945 1151.3 255.776C1099.55 191.091 1011.62 153.453 923.189 115.601Z" fill="#7088BA"/>
</svg>
